{
  "asset": {
    "version": "2.0",
    "generator": "THREE.GLTFExporter"
  },
  "scenes": [
    {
      "nodes": [
        4,
        5
      ],
      "name": "Scene"
    }
  ],
  "scene": 0,
  "nodes": [
    {
      "matrix": [
        2.220446049250313e-14,
        -0.0000043711390340650524,
        -99.99999999999991,
        0,
        -100,
        0,
        -1.6653345369377348e-14,
        0,
        -5.551115123125783e-15,
        99.99999999999991,
        -0.000004371139028513937,
        0,
        -19.391169162650463,
        0,
        -27.34189548254472,
        1
      ],
      "name": "stick_05",
      "extras": {
        "transformData": {
          "inheritType": 1,
          "eulerOrder": "ZYX",
          "translation": [
            13.94180679321289,
            0,
            -11.054450035095215
          ],
          "rotation": [
            -90.00000250447816,
            0,
            0
          ],
          "scale": [
            100,
            100,
            100
          ],
          "parentMatrixWorld": {
            "elements": [
              1,
              0,
              0,
              0,
              0,
              1,
              0,
              0,
              0,
              0,
              1,
              0,
              0,
              0,
              0,
              1
            ]
          }
        }
      },
      "mesh": 0
    },
    {
      "matrix": [
        2.220446049250313e-14,
        2.220446049250313e-14,
        -100,
        0,
        -100,
        0,
        -2.220446049250313e-14,
        0,
        0,
        100,
        2.220446049250313e-14,
        0,
        15.931588581826063,
        0,
        -24.43928838599261,
        1
      ],
      "name": "stick_12",
      "extras": {
        "transformData": {
          "inheritType": 1,
          "eulerOrder": "ZYX",
          "translation": [
            -14.849260330200195,
            0,
            -17.076650619506836
          ],
          "rotation": [
            -90.00000250447816,
            0,
            0
          ],
          "scale": [
            100,
            100,
            100
          ],
          "parentMatrixWorld": {
            "elements": [
              1,
              0,
              0,
              0,
              0,
              1,
              0,
              0,
              0,
              0,
              1,
              0,
              0,
              0,
              0,
              1
            ]
          }
        }
      },
      "mesh": 1
    },
    {
      "matrix": [
        100,
        0,
        0,
        0,
        0,
        -0.000004371139006309477,
        -99.9999999999999,
        0,
        0,
        99.9999999999999,
        -0.000004371139006309477,
        0,
        -0.9583207441167225,
        0,
        -44.6307693112459,
        1
      ],
      "name": "stick_09",
      "extras": {
        "transformData": {
          "inheritType": 1,
          "eulerOrder": "ZYX",
          "translation": [
            -14.849260330200195,
            0,
            2.557372570037842
          ],
          "rotation": [
            -90.00000250447816,
            0,
            0
          ],
          "scale": [
            100,
            100,
            100
          ],
          "parentMatrixWorld": {
            "elements": [
              1,
              0,
              0,
              0,
              0,
              1,
              0,
              0,
              0,
              0,
              1,
              0,
              0,
              0,
              0,
              1
            ]
          }
        }
      },
      "mesh": 2
    },
    {
      "matrix": [
        100,
        0,
        0,
        0,
        0,
        -0.000004371139006309477,
        -99.9999999999999,
        0,
        0,
        99.9999999999999,
        -0.000004371139006309477,
        0,
        -2.731258070236393,
        0,
        -9.690804595235681,
        1
      ],
      "name": "stick_06",
      "extras": {
        "transformData": {
          "inheritType": 1,
          "eulerOrder": "ZYX",
          "translation": [
            13.94180679321289,
            0,
            -17.736616134643555
          ],
          "rotation": [
            -90.00000250447816,
            0,
            0
          ],
          "scale": [
            100,
            100,
            100
          ],
          "parentMatrixWorld": {
            "elements": [
              1,
              0,
              0,
              0,
              0,
              1,
              0,
              0,
              0,
              0,
              1,
              0,
              0,
              0,
              0,
              1
            ]
          }
        }
      },
      "mesh": 3
    },
    {
      "matrix": [
        1,
        0,
        0,
        0,
        0,
        1,
        0,
        0,
        0,
        0,
        1,
        0,
        1.6239825188245351,
        0,
        27.22088777327275,
        1
      ],
      "children": [
        0,
        1,
        2,
        3
      ]
    },
    {
      "matrix": [
        1,
        0,
        0,
        0,
        0,
        1,
        0,
        0,
        0,
        0,
        1,
        0,
        0,
        18.50672219390589,
        0,
        1
      ],
      "name": "PointLight",
      "extensions": {
        "KHR_lights_punctual": {
          "light": 0
        }
      }
    }
  ],
  "bufferViews": [
    {
      "buffer": 0,
      "byteOffset": 0,
      "byteLength": 81360,
      "target": 34962,
      "byteStride": 12
    },
    {
      "buffer": 0,
      "byteOffset": 81360,
      "byteLength": 81360,
      "target": 34962,
      "byteStride": 12
    },
    {
      "buffer": 0,
      "byteOffset": 162720,
      "byteLength": 54240,
      "target": 34962,
      "byteStride": 8
    },
    {
      "buffer": 0,
      "byteOffset": 216960,
      "byteLength": 72504,
      "target": 34962,
      "byteStride": 12
    },
    {
      "buffer": 0,
      "byteOffset": 289464,
      "byteLength": 72504,
      "target": 34962,
      "byteStride": 12
    },
    {
      "buffer": 0,
      "byteOffset": 361968,
      "byteLength": 48336,
      "target": 34962,
      "byteStride": 8
    },
    {
      "buffer": 0,
      "byteOffset": 410304,
      "byteLength": 72252,
      "target": 34962,
      "byteStride": 12
    },
    {
      "buffer": 0,
      "byteOffset": 482556,
      "byteLength": 72252,
      "target": 34962,
      "byteStride": 12
    },
    {
      "buffer": 0,
      "byteOffset": 554808,
      "byteLength": 48168,
      "target": 34962,
      "byteStride": 8
    },
    {
      "buffer": 0,
      "byteOffset": 602976,
      "byteLength": 54216,
      "target": 34962,
      "byteStride": 12
    },
    {
      "buffer": 0,
      "byteOffset": 657192,
      "byteLength": 54216,
      "target": 34962,
      "byteStride": 12
    },
    {
      "buffer": 0,
      "byteOffset": 711408,
      "byteLength": 36144,
      "target": 34962,
      "byteStride": 8
    }
  ],
  "buffers": [
    {
      "byteLength": 747552,
      "uri": "data:application/octet-stream;base64,"
    }
  ],
  "accessors": [
    {
      "bufferView": 0,
      "componentType": 5126,
      "count": 6780,
      "max": [
        0.13626006245613098,
        0.01673312485218048,
        0.014466037042438984
      ],
      "min": [
        -0.13503915071487427,
        -0.02225642278790474,
        -0.013553079217672348
      ],
      "type": "VEC3"
    },
    {
      "bufferView": 1,
      "componentType": 5126,
      "count": 6780,
      "max": [
        0.9981688857078552,
        0.9998779296875,
        0.999969482421875
      ],
      "min": [
        -0.999908447265625,
        -0.9991455078125,
        -0.999969482421875
      ],
      "type": "VEC3"
    },
    {
      "bufferView": 2,
      "componentType": 5126,
      "count": 6780,
      "max": [
        0.9998416304588318,
        0.9992566704750061
      ],
      "min": [
        0.00015836262900847942,
        0.00015836262900847942
      ],
      "type": "VEC2"
    },
    {
      "bufferView": 3,
      "componentType": 5126,
      "count": 6042,
      "max": [
        0.14258910715579987,
        0.02290712483227253,
        0.01354355737566948
      ],
      "min": [
        -0.11275345832109451,
        -0.021925082430243492,
        -0.016843212768435478
      ],
      "type": "VEC3"
    },
    {
      "bufferView": 4,
      "componentType": 5126,
      "count": 6042,
      "max": [
        0.999542236328125,
        0.9989013075828552,
        0.9998779296875
      ],
      "min": [
        -0.9932249188423157,
        -0.999755859375,
        -0.999908447265625
      ],
      "type": "VEC3"
    },
    {
      "bufferView": 5,
      "componentType": 5126,
      "count": 6042,
      "max": [
        0.9903542399406433,
        0.9994059205055237
      ],
      "min": [
        0.0005940586561337113,
        0.0005940586561337113
      ],
      "type": "VEC2"
    },
    {
      "bufferView": 6,
      "componentType": 5126,
      "count": 6021,
      "max": [
        0.1108049526810646,
        0.01998099684715271,
        0.03686249256134033
      ],
      "min": [
        -0.11011505872011185,
        -0.020124761387705803,
        -0.0157653596252203
      ],
      "type": "VEC3"
    },
    {
      "bufferView": 7,
      "componentType": 5126,
      "count": 6021,
      "max": [
        0.9980162978172302,
        0.9998779296875,
        0.999176025390625
      ],
      "min": [
        -0.9964598417282104,
        -0.99993896484375,
        -0.99993896484375
      ],
      "type": "VEC3"
    },
    {
      "bufferView": 8,
      "componentType": 5126,
      "count": 6021,
      "max": [
        0.9993076324462891,
        0.9982476234436035
      ],
      "min": [
        0.0006923599285073578,
        0.0006923599285073578
      ],
      "type": "VEC2"
    },
    {
      "bufferView": 9,
      "componentType": 5126,
      "count": 4518,
      "max": [
        0.1243792176246643,
        0.014623010531067848,
        0.014145989902317524
      ],
      "min": [
        -0.12469425797462463,
        -0.015961701050400734,
        -0.013895946554839611
      ],
      "type": "VEC3"
    },
    {
      "bufferView": 10,
      "componentType": 5126,
      "count": 4518,
      "max": [
        0.9998779296875,
        0.999908447265625,
        0.99981689453125
      ],
      "min": [
        -0.9963072538375854,
        -0.999755859375,
        -0.9998779296875
      ],
      "type": "VEC3"
    },
    {
      "bufferView": 11,
      "componentType": 5126,
      "count": 4518,
      "max": [
        0.9998141527175903,
        0.9862899780273438
      ],
      "min": [
        0.00018594734137877822,
        0.00018594734137877822
      ],
      "type": "VEC2"
    }
  ],
  "materials": [
    {
      "pbrMetallicRoughness": {
        "metallicFactor": 0.5,
        "roughnessFactor": 0.5,
        "baseColorTexture": {
          "index": 0
        }
      },
      "normalTexture": {
        "index": 1,
        "scale": 1
      },
      "name": "stick_05"
    },
    {
      "pbrMetallicRoughness": {
        "metallicFactor": 0.5,
        "roughnessFactor": 0.5,
        "baseColorTexture": {
          "index": 2
        }
      },
      "normalTexture": {
        "index": 3,
        "scale": 1
      },
      "name": "stick_12"
    },
    {
      "pbrMetallicRoughness": {
        "metallicFactor": 0.5,
        "roughnessFactor": 0.5,
        "baseColorTexture": {
          "index": 4
        }
      },
      "normalTexture": {
        "index": 5,
        "scale": 1
      },
      "name": "stick_09"
    },
    {
      "pbrMetallicRoughness": {
        "metallicFactor": 0.5,
        "roughnessFactor": 0.5,
        "baseColorTexture": {
          "index": 6
        }
      },
      "normalTexture": {
        "index": 7,
        "scale": 1
      },
      "name": "stick_06"
    }
  ],
  "textures": [
    {
      "sampler": 0,
      "source": 0
    },
    {
      "sampler": 1,
      "source": 1
    },
    {
      "sampler": 2,
      "source": 2
    },
    {
      "sampler": 3,
      "source": 3
    },
    {
      "sampler": 4,
      "source": 4
    },
    {
      "sampler": 5,
      "source": 5
    },
    {
      "sampler": 6,
      "source": 6
    },
    {
      "sampler": 7,
      "source": 7
    }
  ],
  "samplers": [
    {
      "magFilter": 9729,
      "minFilter": 9987,
      "wrapS": 33071,
      "wrapT": 33071
    },
    {
      "magFilter": 9729,
      "minFilter": 9987,
      "wrapS": 33071,
      "wrapT": 33071
    },
    {
      "magFilter": 9729,
      "minFilter": 9987,
      "wrapS": 33071,
      "wrapT": 33071
    },
    {
      "magFilter": 9729,
      "minFilter": 9987,
      "wrapS": 33071,
      "wrapT": 33071
    },
    {
      "magFilter": 9729,
      "minFilter": 9987,
      "wrapS": 33071,
      "wrapT": 33071
    },
    {
      "magFilter": 9729,
      "minFilter": 9987,
      "wrapS": 33071,
      "wrapT": 33071
    },
    {
      "magFilter": 9729,
      "minFilter": 9987,
      "wrapS": 33071,
      "wrapT": 33071
    },
    {
      "magFilter": 9729,
      "minFilter": 9987,
      "wrapS": 33071,
      "wrapT": 33071
    }
  ],
  "images": [
    {
      "mimeType": "image/jpeg",
      "uri": "data:image/jpeg;base64,"
    },
    {
      "mimeType": "image/jpeg",
      "uri": "data:image/jpeg;base64,"
    },
    {
      "mimeType": "image/jpeg",
      "uri": "data:image/jpeg;base64,"
    },
    {
      "mimeType": "image/jpeg",
      "uri": "data:image/jpeg;base64,"
    },
    {
      "mimeType": "image/jpeg",
      "uri": "data:image/jpeg;base64,"
    },
    {
      "mimeType": "image/jpeg",
      "uri": "data:image/jpeg;base64,"
    },
    {
      "mimeType": "image/jpeg",
      "uri": "data:image/jpeg;base64,"
    },
    {
      "mimeType": "image/jpeg",
      "uri": "data:image/jpeg;base64,"
    }
  ],
  "meshes": [
    {
      "primitives": [
        {
          "mode": 4,
          "attributes": {
            "POSITION": 0,
            "NORMAL": 1,
            "TEXCOORD_0": 2
          },
          "material": 0
        }
      ]
    },
    {
      "primitives": [
        {
          "mode": 4,
          "attributes": {
            "POSITION": 3,
            "NORMAL": 4,
            "TEXCOORD_0": 5
          },
          "material": 1
        }
      ]
    },
    {
      "primitives": [
        {
          "mode": 4,
          "attributes": {
            "POSITION": 6,
            "NORMAL": 7,
            "TEXCOORD_0": 8
          },
          "material": 2
        }
      ]
    },
    {
      "primitives": [
        {
          "mode": 4,
          "attributes": {
            "POSITION": 9,
            "NORMAL": 10,
            "TEXCOORD_0": 11
          },
          "material": 3
        }
      ]
    }
  ],
  "extensions": {
    "KHR_lights_punctual": {
      "lights": [
        {
          "name": "PointLight",
          "color": [
            1,
            1,
            1
          ],
          "intensity": 1,
          "type": "point"
        }
      ]
    }
  },
  "extensionsUsed": [
    "KHR_lights_punctual"
  ]
}